<svg id="Layer_1" data-name="Layer 1" xmlns="http://www.w3.org/2000/svg" xmlns:xlink="http://www.w3.org/1999/xlink" viewBox="0 0 131.97 77.93"><defs><style>.cls-1{fill:#d200ff;}.cls-2{fill:url(#New_Gradient_Swatch);}</style><linearGradient id="New_Gradient_Swatch" x1="3.24" y1="41.39" x2="135.21" y2="41.39" gradientUnits="userSpaceOnUse"><stop offset="0" stop-color="#6800ff"/><stop offset="1" stop-color="#d200ff"/></linearGradient></defs><path class="cls-1" d="M135.19,80.27a11.24,11.24,0,0,0-.37-1.41c-.12-.37-.26-.73-.41-1.08s-.26-.56-.41-.84-.27-.47-.41-.7-.26-.41-.4-.6v0c-.13-.17-.26-.35-.4-.52s-.27-.32-.41-.47-.27-.3-.41-.44-.27-.26-.41-.39-.17-.16-.25-.23l-.16-.15-.41-.39-.41-.4c-.14-.12-.27-.25-.4-.38h0l-.4-.38-.41-.39-.41-.39-.41-.4-.41-.39h0l-.41-.39-.4-.39h0l-.4-.39-.41-.4c-.14-.13-.28-.26-.41-.4s-.28-.26-.41-.4l-.41-.39-.41-.4-.41-.4-.4-.39h0l-.4-.39-.41-.41c-.14-.14-.27-.28-.41-.41s-.27-.28-.41-.41-.27-.28-.41-.41l-.41-.41-.4-.4h0c-.13-.14-.27-.27-.4-.4l-.41-.42c-.14-.13-.28-.27-.41-.41s-.28-.27-.41-.41l-.41-.43-.41-.42-.41-.43-.4-.41h0l-.4-.42-.41-.42c-.14-.14-.28-.28-.41-.43h0l-.41-.42-.28-.29-.13-.13-.41-.41-.4-.37h0l-.4-.34-.41-.3-.41-.28-.41-.23-.41-.2c-.14-.05-.27-.11-.41-.15l-.4-.11h0l-.4-.07-.41,0h-.41l-.41,0-.41.07-.41.09-.41.11-.4.14h0l-.4.15-.41.18-.41.2-.29.15-.12.06-.41.2h0l-.41.2-.4.18h0l-.4.15-.41.17-.41.16-.41.13-.41.13-.41.13-.41.1-.4.1h0l-.4.1-.41.08-.41.07-.41.07-.41,0-.41.05-.4,0h0l-.4,0-.41,0h-.41l-.41,0H96.81l-.4,0h0l-.4,0-.41,0-.41,0h0l-.41-.06-.41-.06L94,58.55l-.4-.08h0l-.4-.08-.41-.08-.41-.11-.41-.11L91.5,58l-.41-.13-.4-.13h0l-.4-.12-.41-.16h0l-.41-.16-.41-.15c-.14-.06-.27-.13-.41-.18l-.41-.19-.41-.18-.4-.21h0l-.4-.21L86.6,56l-.41-.25-.41-.24c-.14-.08-.28-.16-.41-.25h0L85,54.94l-.4-.27h0l-.4-.28-.41-.31-.41-.32-.41-.34-.41-.35-.41-.38-.41-.39c-.14-.13-.27-.26-.4-.4h0c-.14-.14-.27-.29-.4-.43s-.28-.3-.41-.46-.28-.33-.41-.5-.28-.34-.41-.52l-.41-.57-.41-.61-.4-.65v0c-.14-.24-.27-.49-.4-.73s-.28-.55-.41-.83-.29-.62-.41-.94-.29-.77-.41-1.16a15.12,15.12,0,0,1-.41-1.64A16.36,16.36,0,0,1,76,39.3a26.91,26.91,0,0,1,.35-4.15c.11-.7.25-1.38.41-2,.12-.5.26-1,.41-1.45s.26-.82.41-1.22.26-.75.41-1.11.26-.57.4-.86v0c.13-.29.25-.58.4-.86s.27-.49.41-.73.27-.48.41-.72.27-.43.41-.64l.41-.6c.14-.19.26-.4.41-.59s.27-.32.4-.49h0l.4-.48c.14-.17.27-.34.41-.5l.41-.41c.13-.14.27-.28.41-.41s.27-.29.41-.42l.41-.35.41-.35c.13-.11.26-.23.4-.33h0c.13-.11.26-.22.4-.32s.27-.18.41-.28h0c.13-.1.27-.19.41-.28l.41-.28.41-.26c.13-.08.27-.14.41-.22l.4-.22h0l.4-.22.41-.2.41-.17c.13-.07.27-.12.41-.18l.41-.18.41-.16h0l.41-.13.4-.12h0l.4-.12.41-.13.41-.1.41-.08.41-.09.41-.08.4-.09h0l.39,0,.41,0,.41,0,.41,0h0l.41-.05.41,0h2c.14,0,.27,0,.41,0l.41,0,.41,0c.13,0,.27,0,.4,0h0l.4,0,.41.07c.14,0,.27,0,.41.06l.41.07.41.06.41.07.4.1h0l.4.1.41.1.41.11.41.12.41.14.41.15.41.14.4.14h0l.4.17.41.19h0l.41.19.41.19.41.21c.14.07.27.16.41.24l.4.23h0l.4.24.41.25.41.29.41.29.41.3.41.31h0c.14.11.27.24.41.36l.4.34h0l.4.35.41.4.41.43c.13.15.28.29.41.43l.41.46.41.52.4.51h0l.4.54c.14.2.27.42.41.63s.28.42.41.64.27.47.41.72h0c.14.25.27.52.41.78s.28.55.41.83.27.65.4,1v0c.14.34.28.68.4,1s.28.87.41,1.32c0,.16.1.31.15.48.1.38.18.75.26,1.11a21.46,21.46,0,0,1,.41,2.65,12.26,12.26,0,0,1,0,2.1,9.18,9.18,0,0,1-.41,2,7.63,7.63,0,0,1-.41,1c-.13.25-.26.49-.41.73s-.26.35-.4.53h0c-.13.16-.26.31-.4.46s-.27.28-.41.41a4.59,4.59,0,0,1-.41.36h0l-.41.32-.41.31-.41.25-.4.25h0l-.4.22-.41.2-.41.21-.41.18-.41.17-.41.17-.4.16h0l-.4.14-.41.14h0l-.41.13-.41.14-.41.11-.41.12-.41.11-.4.12h0l0,0h0l.4.35.41.36.41.36.41.36.41.36.41.36h0l.41.36.4.35h0l.4.35.41.35.41.36.41.36.41.36.41.36.4.35h0l.4.35.41.36.41.36.41.35h0l.41.36.41.36.4.35h0l.4.35.41.36.41.36.41.36.41.36.41.36.41.35.4.35h0l.26.23.14.11a3.26,3.26,0,0,0,.41.3,2.28,2.28,0,0,0,.41.21,2.16,2.16,0,0,0,.41.13l.41,0a2,2,0,0,0,.41-.07,3.42,3.42,0,0,0,.4-.17h0a3,3,0,0,0,.4-.26c.14-.11.27-.22.41-.35l.41-.43.3-.34a1.71,1.71,0,0,0,.11-.14l.41-.52c.14-.17.28-.34.41-.52l.41-.55c.14-.2.27-.4.4-.6h0l.4-.6c.14-.22.27-.46.41-.69h0c.14-.24.28-.47.41-.72s.28-.51.41-.77.28-.57.41-.86.28-.62.41-.93.27-.67.4-1v0c.14-.39.27-.78.4-1.17s.28-.91.41-1.37.29-1.11.41-1.68c.17-.8.3-1.61.41-2.42a35.94,35.94,0,0,0,0-9.21c-.11-.83-.25-1.67-.41-2.49-.12-.62-.26-1.24-.41-1.86s-.26-1-.41-1.53-.26-.87-.4-1.3v0c-.13-.37-.27-.74-.4-1.12s-.27-.73-.41-1.09-.27-.64-.41-1l-.41-.92c-.13-.28-.27-.56-.41-.84h0l-.41-.82-.4-.72v0c-.14-.24-.26-.49-.4-.72s-.28-.44-.41-.66l-.41-.66-.41-.62-.41-.58-.41-.58c-.14-.18-.27-.36-.41-.53l-.4-.51h0c-.14-.17-.26-.34-.4-.5l-.41-.47-.41-.46-.41-.46-.41-.42-.41-.4c-.14-.13-.27-.27-.4-.4h0l-.4-.39-.41-.35-.41-.35c-.14-.12-.27-.25-.41-.36l-.41-.32-.41-.31-.41-.31-.4-.3h0l-.4-.26-.41-.27-.41-.26h0L116,8.56l-.41-.23-.41-.23-.4-.22h0l-.4-.22L114,7.46l-.41-.19-.41-.19-.41-.19-.41-.16-.4-.15h0l-.4-.15c-.14,0-.27-.11-.41-.15h0l-.23-.09-.18-.06L110.3,6l-.41-.12-.41-.11-.41-.11-.4-.11h0l-.4-.11-.41-.13-.41-.15L107,5l-.41-.19h0c-.14-.07-.28-.14-.41-.22s-.27-.17-.4-.26h0c-.14-.1-.27-.21-.4-.32a5.14,5.14,0,0,1-.41-.4,4.27,4.27,0,0,1-.41-.52,3.93,3.93,0,0,1-.35-.57h-16a2.22,2.22,0,0,1,0,1.58,1.7,1.7,0,0,1-.41.58,2.37,2.37,0,0,1-.4.28h0c-.13.07-.26.14-.4.2l-.41.17-.41.15-.32.11-.09,0-.41.15h0L85,5.93l-.4.15h0l-.4.15-.41.15-.41.17-.41.17-.41.18-.41.17-.41.18-.4.18h0l-.4.2-.41.2-.41.2-.41.2-.41.23-.41.23-.4.23h0l-.4.23-.41.23c-.14.09-.27.19-.41.27l-.41.27c-.14.1-.28.18-.41.28s-.28.17-.41.27-.28.2-.41.3l-.4.3h0l-.4.3-.41.32c-.14.11-.28.22-.41.34h0c-.14.11-.27.24-.41.36l-.41.36-.41.36-.4.39h0c-.14.13-.27.27-.4.41s-.28.27-.41.42l-.41.42-.41.49-.41.48c-.14.16-.28.32-.41.49s-.27.36-.41.55h0c-.14.18-.27.36-.4.55h0c-.13.19-.27.36-.4.55h0c-.14.21-.27.43-.41.65s-.28.43-.41.66-.28.44-.41.67-.27.52-.41.78-.28.51-.41.78-.27.57-.4.86v0c-.14.3-.27.6-.4.91s-.28.67-.41,1-.28.75-.41,1.13-.28.85-.41,1.28-.29.92-.41,1.4-.28,1.17-.41,1.76c-.05.24-.11.46-.16.7-.09.45-.17.9-.24,1.36v.05a34.14,34.14,0,0,0-.4,4.13,2.26,2.26,0,0,0,0,.26V38.6c0,.06,0,.13,0,.19a34.07,34.07,0,0,0,.4,4.05.2.2,0,0,0,0,.07c.11.69.25,1.37.4,2.06s.26,1.09.41,1.63.26.92.41,1.38.26.81.41,1.21.27.73.41,1.08.27.65.41,1,.26.6.4.89v0c.13.28.26.56.4.83s.27.52.41.78.27.51.41.76.27.46.41.69.27.46.41.69.27.41.41.62h0c.13.2.26.41.4.61h0l.4.56h0l.41.57.41.52c.13.18.27.35.41.52s.27.33.41.5.27.31.41.47.27.32.41.47.27.28.4.43h0l.4.42c.13.14.27.28.41.41s.27.27.41.4l.41.4h0c.13.13.27.25.41.37l.41.37.4.35h0l.4.32.41.34.41.32c.13.11.27.21.41.31l.41.3c.14.1.27.21.41.3s.27.19.41.28l.4.27h0l.4.27.41.25.41.25.41.25.41.23.41.23.4.22h0c.13.07.26.15.4.21l.41.21.41.2.41.2.41.18.41.18.41.18.4.17h0l.4.16.41.15h0l.41.16.18.07.23.07.41.13.41.13.4.13h0l.4.12.41.11.41.1.41.1.41.11.41.08h0l.41.08.4.07h0l.4.08.41.07.41,0,.41.05.41,0,.41,0c.13,0,.26,0,.4,0h0l.4,0,.41,0,.41,0H96c.13,0,.27,0,.4,0h.41l.41,0h.41l.41,0,.41,0,.41,0,.41,0,.4,0h0l.4,0,.41-.06.41-.06.41,0,.41-.06.41-.07.4-.07h0l.4-.07.41-.07.41-.09.41-.09.41-.09.41-.08.41-.1.4-.1h0l.4-.1.41-.1h0l.41-.11.41-.12.41-.11.41-.12.4-.12h0l.4-.13.41-.13.41-.13.41-.13.41-.14.41-.13h0l.41-.14.4-.14h0l.4-.15.41-.14.41-.15.41-.15c.13-.06.27-.1.41-.15s.27-.11.41-.15.26-.06.4-.09h0l.4-.08c.13,0,.27,0,.41-.06l.41,0a2.77,2.77,0,0,1,.41,0h.41l.41,0,.4.08h0l.4.07a3.24,3.24,0,0,1,.41.13l.41.13c.14,0,.27.12.41.18l.41.19.41.25c.14.09.28.17.41.27l0,0,.35.24h0l.4.27c.13.1.27.19.41.28l.41.28.41.27c.13.1.27.19.41.28l.41.28.4.27h0l.4.27c.13.1.27.19.41.28s.27.19.41.28.27.19.41.28.27.19.41.28l.41.29.41.28.4.28h0l.4.28.41.29h0l.41.28.41.29.41.29.41.3c.13.1.26.2.4.29h0l.4.29.41.3.41.3.41.3h0a4.39,4.39,0,0,0,.39.27l.41.25.41.27a3.9,3.9,0,0,1,.4.31h0a2.17,2.17,0,0,1,.4.46,1.46,1.46,0,0,1,0,1.49,4.12,4.12,0,0,1-.39.62h.22l1.79.08A.24.24,0,0,1,135.19,80.27Z" transform="translate(-3.24 -2.42)"/><path class="cls-1" d="M73,69.48l-.4-.44c-.14-.15-.28-.3-.4-.45h0L72,68.36l-.21-.28-.39-.53h0L71,67l-.4-.54-.4-.54-.4-.54-.4-.54-.4-.54-.4-.54-.4-.54-.39-.53h0l-.39-.53-.4-.54-.4-.54-.4-.54L65.8,60l-.4-.54-.4-.54-.39-.52v0l-.39-.52-.4-.54-.4-.54-.4-.54-.4-.54-.4-.54-.4-.54-.39-.53h0L61,53.55l-.4-.54-.4-.54-.4-.54-.4-.54-.4-.53-.4-.54-.39-.53h0l-.39-.53-.4-.54-.4-.54c-.14-.17-.27-.35-.4-.53l-.4-.54-.4-.54-.4-.54L55,45.49h0L54.64,45l-.4-.54-.4-.54-.4-.54L53,42.8l-.4-.54-.4-.54-.39-.52v0l-.39-.52-.4-.54-.4-.54-.4-.54-.15-.2c-.09-.11-.17-.23-.25-.34l-.4-.54-.4-.54-.39-.53v0l-.39-.53-.4-.54-.4-.54c-.14-.18-.27-.36-.4-.55l-.4-.54-.4-.54-.4-.54-.39-.53v0L45.07,32l-.4-.54-.4-.54-.4-.54-.4-.55-.4-.54-.4-.54-.39-.53v0l-.39-.52-.4-.55-.4-.54-.4-.54c-.14-.18-.27-.37-.4-.55l-.4-.54-.4-.54-.39-.53h0l-.39-.53c-.14-.18-.27-.37-.4-.55l-.4-.54-.4-.54-.4-.55-.4-.54-.4-.54-.39-.53h0L35.5,19c-.14-.18-.27-.37-.4-.55l-.4-.54-.4-.54-.4-.54-.4-.55-.4-.54-.39-.53h0l-.39-.53c-.14-.18-.27-.36-.4-.55l-.4-.54-.4-.54-.4-.54c-.14-.18-.27-.37-.4-.55l-.4-.54-.39-.53h0l-.39-.53-.4-.54-.4-.55-.4-.54-.4-.54c-.14-.18-.27-.36-.4-.55l-.4-.54-.39-.53h0L25.93,6l-.4-.54c-.14-.18-.27-.37-.4-.55l-.4-.54-.4-.54-.4-.54-.4-.55-.23-.31H4.79c-.15,0-.28,0-.4,0L4,2.55a1.3,1.3,0,0,0-.39.2h0c-.37.29-.45.81-.24,1.71H3.6a1.7,1.7,0,0,1,.39,0,1.8,1.8,0,0,1,.4.1,1.59,1.59,0,0,1,.4.18,2.27,2.27,0,0,1,.4.29,4.28,4.28,0,0,1,.4.45c.14.19.27.38.4.58s.26.43.4.64.15.24.24.35l.15.2v0l.39.52.4.54c.13.18.26.37.4.55l.4.54.4.54.4.54.4.54.39.52v0l.39.53.4.54.4.54.4.54.4.54.4.54c.13.19.26.37.4.55l.39.53h0l.39.53c.13.18.26.37.4.55l.4.54.4.54.4.55.4.54.4.55.4.54.39.53h0l.39.52.4.54.4.54.4.53.4.54.4.54.4.54.39.52h0l.39.53.4.54.4.53.4.54c.13.17.27.34.4.52s.27.34.4.52l.4.52.39.51h0l.39.51c.13.17.26.35.4.52s.26.35.4.52.26.35.4.52l.4.53.4.52c.13.17.26.35.4.52l.39.51h0l.2.26.19.26c.14.19.28.38.4.56s.28.44.4.66a8.65,8.65,0,0,1,.4.81,4.83,4.83,0,0,1,0,3.82,8,8,0,0,1-.4.84c-.12.22-.26.44-.4.67l-.4.58-.37.49,0,0h0l-.39.51c-.14.17-.27.34-.4.52s-.27.34-.4.52-.27.34-.4.52-.27.35-.4.52-.27.35-.4.52-.27.35-.4.52l-.39.51h0l-.39.51c-.13.17-.27.34-.4.52s-.27.34-.4.52-.27.34-.4.52-.27.35-.4.53-.27.35-.4.53-.27.35-.4.53l-.39.52h0l-.39.52-.4.53-.4.53-.4.53-.4.53-.4.54-.4.53-.39.52h0l-.39.52-.4.54-.4.54c-.14.17-.27.35-.4.53l-.4.54-.4.54-.4.54-.4.53-.39.53h0l-.39.53-.4.53-.4.54-.4.54-.4.54-.4.54-.4.54-.39.53h0l-.39.53-.4.54-.4.53-.4.54-.4.54-.4.54-.4.54-.25.34c0,.06-.1.12-.14.17v0l-.39.46c-.14.15-.27.31-.4.47a4.91,4.91,0,0,0-.4.53,2,2,0,0,0-.4,1.27v0a1.33,1.33,0,0,0,.13.49,1.92,1.92,0,0,0,.27.44,1.79,1.79,0,0,0,.4.38,2.49,2.49,0,0,0,.4.2l.39.11h0a2.44,2.44,0,0,0,.39.06l.4,0h.8l.4,0,.4,0H20.79a2,2,0,0,0,.35,0h.4l.4-.06.4-.09c.13,0,.27-.07.4-.12a3.2,3.2,0,0,0,.39-.16h0l.39-.19a4.23,4.23,0,0,0,.4-.24c.14-.09.27-.2.4-.3l.4-.37a5.82,5.82,0,0,0,.4-.45c.09-.12.19-.24.28-.37l.12-.16c.13-.18.27-.36.4-.55l.39-.52v0l.39-.53.4-.54.4-.54c.13-.18.26-.37.4-.55l.4-.54.4-.53.4-.53.39-.51v0l.39-.51c.13-.18.26-.36.4-.53s.26-.36.4-.53l.4-.53.4-.53.4-.53.4-.53.39-.51v0l.39-.51.4-.53.4-.53.4-.53.4-.54.4-.54.4-.54.39-.53h0l.39-.53.4-.54.4-.54c0-.08.11-.15.16-.22l.24-.32c.13-.18.27-.34.4-.49s.27-.29.4-.42a3.74,3.74,0,0,1,.4-.32,1.86,1.86,0,0,1,.39-.21h0a1.07,1.07,0,0,1,.39-.07.94.94,0,0,1,.4,0,1.6,1.6,0,0,1,.4.19,2.55,2.55,0,0,1,.4.31,4.11,4.11,0,0,1,.4.42c.13.15.26.32.4.51l.16.22c.07.11.16.22.24.33s.25.36.39.53v0l.39.49c.13.17.26.34.4.5l.4.48.4.48.4.48.4.48.4.49.39.5h0l.39.52.4.57.4.61c.14.24.27.48.4.72s.14.24.2.37.13.25.2.38.26.51.4.76.26.5.4.74.26.42.39.63h0c.13.21.25.43.39.63s.26.38.4.57l.4.54c.13.18.26.36.4.53s.27.31.4.46.26.31.4.45.26.3.4.44l.39.37h0l.39.37c.13.12.26.24.4.35l.4.32.4.31c.13.1.26.21.4.3l.4.26.4.25c.13.08.26.18.39.25h0l.39.2.4.21.4.2.4.18.4.16.4.16.4.16.39.12h0l.39.11.4.12.4.11c.13,0,.27,0,.4.08l.4.08.4.08.4.08.39,0h0l.39,0,.4,0,.4.05H63l.4,0h.4l.4,0H65l.4,0h.4l.4,0,.4,0,.4,0,.4,0,.39,0h0l.39-.06.4-.06.4-.06.4-.06.24,0,.16,0a2.61,2.61,0,0,1,.4,0h.4l.4,0,.39,0h0l.39,0h.4a2.57,2.57,0,0,0,.4-.07,2,2,0,0,0,.4-.17,1.62,1.62,0,0,0,.4-.35,2,2,0,0,0,.25-.4A1.66,1.66,0,0,0,73.38,70,6.4,6.4,0,0,0,73,69.48Z" transform="translate(-3.24 -2.42)"/><path class="cls-1" d="M52.31,10.92c0,.17.08.35.13.53s.08.28.13.42.08.25.13.37.08.22.13.34.08.2.13.3.08.19.13.29.08.18.13.27l.13.25c0,.08.08.16.13.24a1.71,1.71,0,0,0,.13.23l.13.23.13.22a2.39,2.39,0,0,0,.13.21,2.39,2.39,0,0,0,.13.21,2.14,2.14,0,0,0,.13.19l.13.2a2.14,2.14,0,0,0,.13.19l.13.19h0l.13.19.13.18.13.17.13.18a1.09,1.09,0,0,0,.13.17,1.09,1.09,0,0,0,.13.17,1.09,1.09,0,0,0,.13.17,1.09,1.09,0,0,0,.13.17l.13.17a1.83,1.83,0,0,0,.13.16,1,1,0,0,0,.13.16l.13.17.13.16.13.16.13.15a1,1,0,0,0,.13.16,1.83,1.83,0,0,0,.13.16l.13.16.13.15.13.16.13.15.13.16.08.09,0,.06h0l.13.15.13.14.13.15.13.13.13.13.13.13.13.12.13.11.13.11.13.1.13.1.13.09.13.08.13.08.13.07.13.06.13,0,.13.05.13,0,.13,0,.13,0h.4l.13,0,.13,0,.13,0,.13,0,.13-.06.13-.07.13-.07.13-.08.13-.09.13-.11.13-.11.13-.12.13-.13.13-.13.13-.15.13-.15A1,1,0,0,1,63,20l.13-.18.13-.17h0l.12-.17.13-.18.13-.18h0l.13-.18.13-.18.13-.18a2.14,2.14,0,0,1,.13-.19l.13-.18.13-.18.13-.18.13-.18.13-.18.13-.18.13-.18.13-.18.13-.18.13-.18.13-.18c0-.06.09-.12.13-.19l.13-.18.13-.18.13-.18.13-.18.13-.18a2.14,2.14,0,0,1,.13-.19l.13-.18v0l.13-.19.13-.18a2.14,2.14,0,0,1,.13-.19l.13-.18a1.27,1.27,0,0,1,.13-.19l.13-.19.13-.18.13-.19.13-.19L68,13l.13-.19.13-.19.13-.18a2.14,2.14,0,0,1,.13-.19l.13-.18a1.27,1.27,0,0,1,.13-.19h0l.13-.19.13-.18c0-.07.09-.13.13-.19l.13-.19.13-.18a1.27,1.27,0,0,1,.13-.19,1.27,1.27,0,0,1,.13-.19v0l.13-.18.13-.19.13-.19.13-.19.13-.19.13-.19.13-.19.13-.19.13-.18L71,8.71l.13-.19.13-.19.13-.19L71.48,8l.13-.19.13-.19h0l.13-.18L72,7.2A1.27,1.27,0,0,1,72.13,7l.13-.19a2.14,2.14,0,0,1,.13-.19l.13-.19.13-.18v0l.13-.19.13-.18a1.27,1.27,0,0,1,.13-.19,1.27,1.27,0,0,1,.13-.19,2.14,2.14,0,0,1,.13-.19l.13-.19.13-.18.13-.19.13-.19L74,4.36l.13-.18L74.22,4a1.27,1.27,0,0,1,.13-.19l.13-.19.13-.19.13-.18h0a1.27,1.27,0,0,1,.13-.19A2.14,2.14,0,0,1,75,2.86l.13-.19.13-.19h-20l0,0-.13.15-.13.15L54.79,3l-.13.15v0a1.83,1.83,0,0,0-.13.16l-.13.17-.13.16-.13.18L54,4l-.13.18-.13.2-.13.2a2.39,2.39,0,0,0-.13.21,2.53,2.53,0,0,0-.13.22c-.05.08-.09.16-.13.24l-.13.23L53,5.76c-.05.09-.09.18-.13.27s-.09.22-.13.33-.09.23-.13.34-.09.28-.13.41-.09.35-.13.52a7.46,7.46,0,0,0-.13.78,7.35,7.35,0,0,0,0,1.69A7.76,7.76,0,0,0,52.31,10.92Z" transform="translate(-3.24 -2.42)"/><path class="cls-2" d="M135.19,80.27a11.24,11.24,0,0,0-.37-1.41c-.12-.37-.26-.73-.41-1.08s-.26-.56-.41-.84-.27-.47-.41-.7-.26-.41-.4-.6v0c-.13-.17-.26-.35-.4-.52s-.27-.32-.41-.47-.27-.3-.41-.44-.27-.26-.41-.39-.17-.16-.25-.23l-.16-.15-.41-.39-.41-.4c-.14-.12-.27-.25-.4-.38h0l-.4-.38-.41-.39-.41-.39-.41-.4-.41-.39h0l-.41-.39-.4-.39h0l-.4-.39-.41-.4c-.14-.13-.28-.26-.41-.4s-.28-.26-.41-.4l-.41-.39-.41-.4-.41-.4-.4-.39h0l-.4-.39-.41-.41c-.14-.14-.27-.28-.41-.41s-.27-.28-.41-.41-.27-.28-.41-.41l-.41-.41-.4-.4h0c-.13-.14-.27-.27-.4-.4l-.41-.42c-.14-.13-.28-.27-.41-.41s-.28-.27-.41-.41l-.41-.43-.41-.42-.41-.43-.4-.41h0l-.4-.42-.41-.42c-.14-.14-.28-.28-.41-.43h0l-.41-.42-.28-.29-.13-.13-.41-.41-.4-.37h0l-.4-.34-.41-.3-.41-.28-.41-.23-.41-.2c-.14-.05-.27-.11-.41-.15l-.4-.11h0l-.4-.07-.41,0h-.41l-.41,0-.41.07-.41.09-.41.11-.4.14h0l-.4.15-.41.18-.41.2-.29.15-.12.06-.41.2h0l-.41.2-.4.18h0l-.4.15-.41.17-.41.16-.41.13-.41.13-.41.13-.41.1-.4.1h0l-.4.1-.41.08-.41.07-.41.07-.41,0-.41.05-.4,0h0l-.4,0-.41,0h-.41l-.41,0H96.81l-.4,0h0l-.4,0-.41,0-.41,0h0l-.41-.06-.41-.06L94,58.55l-.4-.08h0l-.4-.08-.41-.08-.41-.11-.41-.11L91.5,58l-.41-.13-.4-.13h0l-.4-.12-.41-.16h0l-.41-.16-.41-.15c-.14-.06-.27-.13-.41-.18l-.41-.19-.41-.18-.4-.21h0l-.4-.21L86.6,56l-.41-.25-.41-.24c-.14-.08-.28-.16-.41-.25h0L85,54.94l-.4-.27h0l-.4-.28-.41-.31-.41-.32-.41-.34-.41-.35-.41-.38-.41-.39c-.14-.13-.27-.26-.4-.4h0c-.14-.14-.27-.29-.4-.43s-.28-.3-.41-.46-.28-.33-.41-.5-.28-.34-.41-.52l-.41-.57-.41-.61-.4-.65v0c-.14-.24-.27-.49-.4-.73s-.28-.55-.41-.83-.29-.62-.41-.94-.29-.77-.41-1.16a15.12,15.12,0,0,1-.41-1.64A16.36,16.36,0,0,1,76,39.3a26.91,26.91,0,0,1,.35-4.15c.11-.7.25-1.38.41-2,.12-.5.26-1,.41-1.45s.26-.82.41-1.22.26-.75.41-1.11.26-.57.4-.86v0c.13-.29.25-.58.4-.86s.27-.49.41-.73.27-.48.41-.72.27-.43.41-.64l.41-.6c.14-.19.26-.4.41-.59s.27-.32.4-.49h0l.4-.48c.14-.17.27-.34.41-.5l.41-.41c.13-.14.27-.28.41-.41s.27-.29.41-.42l.41-.35.41-.35c.13-.11.26-.23.4-.33h0c.13-.11.26-.22.4-.32s.27-.18.41-.28h0c.13-.1.27-.19.41-.28l.41-.28.41-.26c.13-.08.27-.14.41-.22l.4-.22h0l.4-.22.41-.2.41-.17c.13-.07.27-.12.41-.18l.41-.18.41-.16h0l.41-.13.4-.12h0l.4-.12.41-.13.41-.1.41-.08.41-.09.41-.08.4-.09h0l.39,0,.41,0,.41,0,.41,0h0l.41-.05.41,0h2c.14,0,.27,0,.41,0l.41,0,.41,0c.13,0,.27,0,.4,0h0l.4,0,.41.07c.14,0,.27,0,.41.06l.41.07.41.06.41.07.4.1h0l.4.1.41.1.41.11.41.12.41.14.41.15.41.14.4.14h0l.4.17.41.19h0l.41.19.41.19.41.21c.14.07.27.16.41.24l.4.23h0l.4.24.41.25.41.29.41.29.41.3.41.31h0c.14.11.27.24.41.36l.4.34h0l.4.35.41.4.41.43c.13.15.28.29.41.43l.41.46.41.52.4.51h0l.4.54c.14.2.27.42.41.63s.28.42.41.64.27.47.41.72h0c.14.25.27.52.41.78s.28.55.41.83.27.65.4,1v0c.14.34.28.68.4,1s.28.87.41,1.32c0,.16.1.31.15.48.1.38.18.75.26,1.11a21.46,21.46,0,0,1,.41,2.65,12.26,12.26,0,0,1,0,2.1,9.18,9.18,0,0,1-.41,2,7.63,7.63,0,0,1-.41,1c-.13.25-.26.49-.41.73s-.26.35-.4.53h0c-.13.16-.26.31-.4.46s-.27.28-.41.41a4.59,4.59,0,0,1-.41.36h0l-.41.32-.41.31-.41.25-.4.25h0l-.4.22-.41.2-.41.21-.41.18-.41.17-.41.17-.4.16h0l-.4.14-.41.14h0l-.41.13-.41.14-.41.11-.41.12-.41.11-.4.12h0l0,0h0l.4.35.41.36.41.36.41.36.41.36.41.36h0l.41.36.4.35h0l.4.35.41.35.41.36.41.36.41.36.41.36.4.35h0l.4.35.41.36.41.36.41.35h0l.41.36.41.36.4.35h0l.4.35.41.36.41.36.41.36.41.36.41.36.41.35.4.35h0l.26.23.14.11a3.26,3.26,0,0,0,.41.3,2.28,2.28,0,0,0,.41.21,2.16,2.16,0,0,0,.41.13l.41,0a2,2,0,0,0,.41-.07,3.42,3.42,0,0,0,.4-.17h0a3,3,0,0,0,.4-.26c.14-.11.27-.22.41-.35l.41-.43.3-.34a1.71,1.71,0,0,0,.11-.14l.41-.52c.14-.17.28-.34.41-.52l.41-.55c.14-.2.27-.4.4-.6h0l.4-.6c.14-.22.27-.46.41-.69h0c.14-.24.28-.47.41-.72s.28-.51.41-.77.28-.57.41-.86.28-.62.41-.93.27-.67.4-1v0c.14-.39.27-.78.4-1.17s.28-.91.41-1.37.29-1.11.41-1.68c.17-.8.3-1.61.41-2.42a35.94,35.94,0,0,0,0-9.21c-.11-.83-.25-1.67-.41-2.49-.12-.62-.26-1.24-.41-1.86s-.26-1-.41-1.53-.26-.87-.4-1.3v0c-.13-.37-.27-.74-.4-1.12s-.27-.73-.41-1.09-.27-.64-.41-1l-.41-.92c-.13-.28-.27-.56-.41-.84h0l-.41-.82-.4-.72v0c-.14-.24-.26-.49-.4-.72s-.28-.44-.41-.66l-.41-.66-.41-.62-.41-.58-.41-.58c-.14-.18-.27-.36-.41-.53l-.4-.51h0c-.14-.17-.26-.34-.4-.5l-.41-.47-.41-.46-.41-.46-.41-.42-.41-.4c-.14-.13-.27-.27-.4-.4h0l-.4-.39-.41-.35-.41-.35c-.14-.12-.27-.25-.41-.36l-.41-.32-.41-.31-.41-.31-.4-.3h0l-.4-.26-.41-.27-.41-.26h0L116,8.56l-.41-.23-.41-.23-.4-.22h0l-.4-.22L114,7.46l-.41-.19-.41-.19-.41-.19-.41-.16-.4-.15h0l-.4-.15c-.14,0-.27-.11-.41-.15h0l-.23-.09-.18-.06L110.3,6l-.41-.12-.41-.11-.41-.11-.4-.11h0l-.4-.11-.41-.13-.41-.15L107,5l-.41-.19h0c-.14-.07-.28-.14-.41-.22s-.27-.17-.4-.26h0c-.14-.1-.27-.21-.4-.32a5.14,5.14,0,0,1-.41-.4,4.27,4.27,0,0,1-.41-.52,3.93,3.93,0,0,1-.35-.57h-16a2.22,2.22,0,0,1,0,1.58,1.7,1.7,0,0,1-.41.58,2.37,2.37,0,0,1-.4.28h0c-.13.07-.26.14-.4.2l-.41.17-.41.15-.32.11-.09,0-.41.15h0L85,5.93l-.4.15h0l-.4.15-.41.15-.41.17-.41.17-.41.18-.41.17-.41.18-.4.18h0l-.4.2-.41.2-.41.2-.41.2-.41.23-.41.23-.4.23h0l-.4.23-.41.23c-.14.09-.27.19-.41.27l-.41.27c-.14.1-.28.18-.41.28s-.28.17-.41.27-.28.2-.41.3l-.4.3h0l-.4.3-.41.32c-.14.11-.28.22-.41.34h0c-.14.11-.27.24-.41.36l-.41.36-.41.36-.4.39h0c-.14.13-.27.27-.4.41s-.28.27-.41.42l-.41.42-.41.49-.41.48c-.14.16-.28.32-.41.49s-.27.36-.41.55h0c-.14.18-.27.36-.4.55h0c-.13.19-.27.36-.4.55h0c-.14.21-.27.43-.41.65s-.28.43-.41.66-.28.44-.41.67-.27.52-.41.78-.28.51-.41.78-.27.57-.4.86v0c-.14.3-.27.6-.4.91s-.28.67-.41,1-.28.75-.41,1.13-.28.85-.41,1.28-.29.92-.41,1.4-.28,1.17-.41,1.76c-.05.24-.11.46-.16.7-.09.45-.17.9-.24,1.36v.05a34.14,34.14,0,0,0-.4,4.13,2.26,2.26,0,0,0,0,.26V38.6c0,.06,0,.13,0,.19a34.07,34.07,0,0,0,.4,4.05.2.2,0,0,0,0,.07c.11.69.25,1.37.4,2.06s.26,1.09.41,1.63.26.92.41,1.38.26.81.41,1.21.27.73.41,1.08.27.65.41,1,.26.6.4.89v0c.13.28.26.56.4.83s.27.52.41.78.27.51.41.76.27.46.41.69.27.46.41.69.27.41.41.62h0c.13.2.26.41.4.61h0l.4.56h0l.41.57.41.52c.13.18.27.35.41.52s.27.33.41.5.27.31.41.47.27.32.41.47.27.28.4.43h0l.4.42c.13.14.27.28.41.41s.27.27.41.4l.41.4h0c.13.13.27.25.41.37l.41.37.4.35h0l.4.32.41.34.41.32c.13.11.27.21.41.31l.41.3c.14.1.27.21.41.3s.27.19.41.28l.4.27h0l.4.27.41.25.41.25.41.25.41.23.41.23.4.22h0c.13.07.26.15.4.21l.41.21.41.2.41.2.41.18.41.18.41.18.4.17h0l.4.16.41.15h0l.41.16.18.07.23.07.41.13.41.13.4.13h0l.4.12.41.11.41.1.41.1.41.11.41.08h0l.41.08.4.07h0l.4.08.41.07.41,0,.41.05.41,0,.41,0c.13,0,.26,0,.4,0h0l.4,0,.41,0,.41,0H96c.13,0,.27,0,.4,0h.41l.41,0h.41l.41,0,.41,0,.41,0,.41,0,.4,0h0l.4,0,.41-.06.41-.06.41,0,.41-.06.41-.07.4-.07h0l.4-.07.41-.07.41-.09.41-.09.41-.09.41-.08.41-.1.4-.1h0l.4-.1.41-.1h0l.41-.11.41-.12.41-.11.41-.12.4-.12h0l.4-.13.41-.13.41-.13.41-.13.41-.14.41-.13h0l.41-.14.4-.14h0l.4-.15.41-.14.41-.15.41-.15c.13-.06.27-.1.41-.15s.27-.11.41-.15.26-.06.4-.09h0l.4-.08c.13,0,.27,0,.41-.06l.41,0a2.77,2.77,0,0,1,.41,0h.41l.41,0,.4.08h0l.4.07a3.24,3.24,0,0,1,.41.13l.41.13c.14,0,.27.12.41.18l.41.19.41.25c.14.09.28.17.41.27l0,0,.35.24h0l.4.27c.13.1.27.19.41.28l.41.28.41.27c.13.1.27.19.41.28l.41.28.4.27h0l.4.27c.13.1.27.19.41.28s.27.19.41.28.27.19.41.28.27.19.41.28l.41.29.41.28.4.28h0l.4.28.41.29h0l.41.28.41.29.41.29.41.3c.13.1.26.2.4.29h0l.4.29.41.3.41.3.41.3h0a4.39,4.39,0,0,0,.39.27l.41.25.41.27a3.9,3.9,0,0,1,.4.31h0a2.17,2.17,0,0,1,.4.46,1.46,1.46,0,0,1,0,1.49,4.12,4.12,0,0,1-.39.62h.22l1.79.08A.24.24,0,0,1,135.19,80.27Z" transform="translate(-3.24 -2.42)"/><path class="cls-2" d="M73,69.48l-.4-.44c-.14-.15-.28-.3-.4-.45h0L72,68.36l-.21-.28-.39-.53h0L71,67l-.4-.54-.4-.54-.4-.54-.4-.54-.4-.54-.4-.54-.4-.54-.39-.53h0l-.39-.53-.4-.54-.4-.54-.4-.54L65.8,60l-.4-.54-.4-.54-.39-.52v0l-.39-.52-.4-.54-.4-.54-.4-.54-.4-.54-.4-.54-.4-.54-.39-.53h0L61,53.55l-.4-.54-.4-.54-.4-.54-.4-.54-.4-.53-.4-.54-.39-.53h0l-.39-.53-.4-.54-.4-.54c-.14-.17-.27-.35-.4-.53l-.4-.54-.4-.54-.4-.54L55,45.49h0L54.64,45l-.4-.54-.4-.54-.4-.54L53,42.8l-.4-.54-.4-.54-.39-.52v0l-.39-.52-.4-.54-.4-.54-.4-.54-.15-.2c-.09-.11-.17-.23-.25-.34l-.4-.54-.4-.54-.39-.53v0l-.39-.53-.4-.54-.4-.54c-.14-.18-.27-.36-.4-.55l-.4-.54-.4-.54-.4-.54-.39-.53v0L45.07,32l-.4-.54-.4-.54-.4-.54-.4-.55-.4-.54-.4-.54-.39-.53v0l-.39-.52-.4-.55-.4-.54-.4-.54c-.14-.18-.27-.37-.4-.55l-.4-.54-.4-.54-.39-.53h0l-.39-.53c-.14-.18-.27-.37-.4-.55l-.4-.54-.4-.54-.4-.55-.4-.54-.4-.54-.39-.53h0L35.5,19c-.14-.18-.27-.37-.4-.55l-.4-.54-.4-.54-.4-.54-.4-.55-.4-.54-.39-.53h0l-.39-.53c-.14-.18-.27-.36-.4-.55l-.4-.54-.4-.54-.4-.54c-.14-.18-.27-.37-.4-.55l-.4-.54-.39-.53h0l-.39-.53-.4-.54-.4-.55-.4-.54-.4-.54c-.14-.18-.27-.36-.4-.55l-.4-.54-.39-.53h0L25.93,6l-.4-.54c-.14-.18-.27-.37-.4-.55l-.4-.54-.4-.54-.4-.54-.4-.55-.23-.31H4.79c-.15,0-.28,0-.4,0L4,2.55a1.3,1.3,0,0,0-.39.2h0c-.37.29-.45.81-.24,1.71H3.6a1.7,1.7,0,0,1,.39,0,1.8,1.8,0,0,1,.4.1,1.59,1.59,0,0,1,.4.18,2.27,2.27,0,0,1,.4.29,4.28,4.28,0,0,1,.4.45c.14.19.27.38.4.58s.26.43.4.64.15.24.24.35l.15.2v0l.39.52.4.54c.13.18.26.37.4.55l.4.54.4.54.4.54.4.54.39.52v0l.39.53.4.54.4.54.4.54.4.54.4.54c.13.19.26.37.4.55l.39.53h0l.39.53c.13.18.26.37.4.55l.4.54.4.54.4.55.4.54.4.55.4.54.39.53h0l.39.52.4.54.4.54.4.53.4.54.4.54.4.54.39.52h0l.39.53.4.54.4.53.4.54c.13.17.27.34.4.52s.27.34.4.52l.4.52.39.51h0l.39.51c.13.17.26.35.4.52s.26.35.4.52.26.35.4.52l.4.53.4.52c.13.17.26.35.4.52l.39.51h0l.2.26.19.26c.14.19.28.38.4.56s.28.44.4.66a8.65,8.65,0,0,1,.4.81,4.83,4.83,0,0,1,0,3.82,8,8,0,0,1-.4.84c-.12.22-.26.44-.4.67l-.4.58-.37.49,0,0h0l-.39.51c-.14.17-.27.34-.4.52s-.27.34-.4.52-.27.34-.4.52-.27.35-.4.52-.27.35-.4.52-.27.35-.4.52l-.39.51h0l-.39.51c-.13.17-.27.34-.4.52s-.27.34-.4.52-.27.34-.4.52-.27.35-.4.53-.27.35-.4.53-.27.35-.4.53l-.39.52h0l-.39.52-.4.53-.4.53-.4.53-.4.53-.4.54-.4.53-.39.52h0l-.39.52-.4.54-.4.54c-.14.17-.27.35-.4.53l-.4.54-.4.54-.4.54-.4.53-.39.53h0l-.39.53-.4.53-.4.54-.4.54-.4.54-.4.54-.4.54-.39.53h0l-.39.53-.4.54-.4.53-.4.54-.4.54-.4.54-.4.54-.25.34c0,.06-.1.12-.14.17v0l-.39.46c-.14.15-.27.31-.4.47a4.91,4.91,0,0,0-.4.53,2,2,0,0,0-.4,1.27v0a1.33,1.33,0,0,0,.13.49,1.92,1.92,0,0,0,.27.44,1.79,1.79,0,0,0,.4.38,2.49,2.49,0,0,0,.4.2l.39.11h0a2.44,2.44,0,0,0,.39.06l.4,0h.8l.4,0,.4,0H20.79a2,2,0,0,0,.35,0h.4l.4-.06.4-.09c.13,0,.27-.07.4-.12a3.2,3.2,0,0,0,.39-.16h0l.39-.19a4.23,4.23,0,0,0,.4-.24c.14-.09.27-.2.4-.3l.4-.37a5.82,5.82,0,0,0,.4-.45c.09-.12.19-.24.28-.37l.12-.16c.13-.18.27-.36.4-.55l.39-.52v0l.39-.53.4-.54.4-.54c.13-.18.26-.37.4-.55l.4-.54.4-.53.4-.53.39-.51v0l.39-.51c.13-.18.26-.36.4-.53s.26-.36.4-.53l.4-.53.4-.53.4-.53.4-.53.39-.51v0l.39-.51.4-.53.4-.53.4-.53.4-.54.4-.54.4-.54.39-.53h0l.39-.53.4-.54.4-.54c0-.08.11-.15.16-.22l.24-.32c.13-.18.27-.34.4-.49s.27-.29.4-.42a3.74,3.74,0,0,1,.4-.32,1.86,1.86,0,0,1,.39-.21h0a1.07,1.07,0,0,1,.39-.07.94.94,0,0,1,.4,0,1.6,1.6,0,0,1,.4.19,2.55,2.55,0,0,1,.4.31,4.11,4.11,0,0,1,.4.42c.13.15.26.32.4.51l.16.22c.07.11.16.22.24.33s.25.36.39.53v0l.39.49c.13.17.26.34.4.5l.4.48.4.48.4.48.4.48.4.49.39.5h0l.39.52.4.57.4.61c.14.24.27.48.4.72s.14.24.2.37.13.25.2.38.26.51.4.76.26.5.4.74.26.42.39.63h0c.13.21.25.43.39.63s.26.38.4.57l.4.54c.13.18.26.36.4.53s.27.31.4.46.26.31.4.45.26.3.4.44l.39.37h0l.39.37c.13.12.26.24.4.35l.4.32.4.31c.13.1.26.21.4.3l.4.26.4.25c.13.08.26.18.39.25h0l.39.2.4.21.4.2.4.18.4.16.4.16.4.16.39.12h0l.39.11.4.12.4.11c.13,0,.27,0,.4.08l.4.08.4.08.4.08.39,0h0l.39,0,.4,0,.4.05H63l.4,0h.4l.4,0H65l.4,0h.4l.4,0,.4,0,.4,0,.4,0,.39,0h0l.39-.06.4-.06.4-.06.4-.06.24,0,.16,0a2.61,2.61,0,0,1,.4,0h.4l.4,0,.39,0h0l.39,0h.4a2.57,2.57,0,0,0,.4-.07,2,2,0,0,0,.4-.17,1.62,1.62,0,0,0,.4-.35,2,2,0,0,0,.25-.4A1.66,1.66,0,0,0,73.38,70,6.4,6.4,0,0,0,73,69.48Z" transform="translate(-3.24 -2.42)"/><path class="cls-2" d="M52.31,10.92c0,.17.08.35.13.53s.08.28.13.42.08.25.13.37.08.22.13.34.08.2.13.3.08.19.13.29.08.18.13.27l.13.25c0,.08.08.16.13.24a1.71,1.71,0,0,0,.13.23l.13.23.13.22a2.39,2.39,0,0,0,.13.21,2.39,2.39,0,0,0,.13.21,2.14,2.14,0,0,0,.13.19l.13.2a2.14,2.14,0,0,0,.13.19l.13.19h0l.13.19.13.18.13.17.13.18a1.09,1.09,0,0,0,.13.17,1.09,1.09,0,0,0,.13.17,1.09,1.09,0,0,0,.13.17,1.09,1.09,0,0,0,.13.17l.13.17a1.83,1.83,0,0,0,.13.16,1,1,0,0,0,.13.16l.13.17.13.16.13.16.13.15a1,1,0,0,0,.13.16,1.83,1.83,0,0,0,.13.16l.13.16.13.15.13.16.13.15.13.16.08.09,0,.06h0l.13.15.13.14.13.15.13.13.13.13.13.13.13.12.13.11.13.11.13.1.13.1.13.09.13.08.13.08.13.07.13.06.13,0,.13.05.13,0,.13,0,.13,0h.4l.13,0,.13,0,.13,0,.13,0,.13-.06.13-.07.13-.07.13-.08.13-.09.13-.11.13-.11.13-.12.13-.13.13-.13.13-.15.13-.15A1,1,0,0,1,63,20l.13-.18.13-.17h0l.12-.17.13-.18.13-.18h0l.13-.18.13-.18.13-.18a2.14,2.14,0,0,1,.13-.19l.13-.18.13-.18.13-.18.13-.18.13-.18.13-.18.13-.18.13-.18.13-.18.13-.18.13-.18c0-.06.09-.12.13-.19l.13-.18.13-.18.13-.18.13-.18.13-.18a2.14,2.14,0,0,1,.13-.19l.13-.18v0l.13-.19.13-.18a2.14,2.14,0,0,1,.13-.19l.13-.18a1.27,1.27,0,0,1,.13-.19l.13-.19.13-.18.13-.19.13-.19L68,13l.13-.19.13-.19.13-.18a2.14,2.14,0,0,1,.13-.19l.13-.18a1.27,1.27,0,0,1,.13-.19h0l.13-.19.13-.18c0-.07.09-.13.13-.19l.13-.19.13-.18a1.27,1.27,0,0,1,.13-.19,1.27,1.27,0,0,1,.13-.19v0l.13-.18.13-.19.13-.19.13-.19.13-.19.13-.19.13-.19.13-.19.13-.18L71,8.71l.13-.19.13-.19.13-.19L71.48,8l.13-.19.13-.19h0l.13-.18L72,7.2A1.27,1.27,0,0,1,72.13,7l.13-.19a2.14,2.14,0,0,1,.13-.19l.13-.19.13-.18v0l.13-.19.13-.18a1.27,1.27,0,0,1,.13-.19,1.27,1.27,0,0,1,.13-.19,2.14,2.14,0,0,1,.13-.19l.13-.19.13-.18.13-.19.13-.19L74,4.36l.13-.18L74.22,4a1.27,1.27,0,0,1,.13-.19l.13-.19.13-.19.13-.18h0a1.27,1.27,0,0,1,.13-.19A2.14,2.14,0,0,1,75,2.86l.13-.19.13-.19h-20l0,0-.13.15-.13.15L54.79,3l-.13.15v0a1.83,1.83,0,0,0-.13.16l-.13.17-.13.16-.13.18L54,4l-.13.18-.13.2-.13.2a2.39,2.39,0,0,0-.13.21,2.53,2.53,0,0,0-.13.22c-.05.08-.09.16-.13.24l-.13.23L53,5.76c-.05.09-.09.18-.13.27s-.09.22-.13.33-.09.23-.13.34-.09.28-.13.41-.09.35-.13.52a7.46,7.46,0,0,0-.13.78,7.35,7.35,0,0,0,0,1.69A7.76,7.76,0,0,0,52.31,10.92Z" transform="translate(-3.24 -2.42)"/></svg>